<svg xmlns="http://www.w3.org/2000/svg" viewBox="0 0 485 483.33">
  <defs>
    <style>
      .departement, .region {
        fill: none;
        stroke: #e6e6e6;
        stroke-linecap: round;
        stroke-linejoin: round;
      }

      .departement {
        stroke-width: 0.2pt;
      }

      .region {
        stroke-width: 0.5pt;
      }
    </style>
  </defs>
  <title>Map of France</title>
  <g id="Layer_2" data-name="Layer 2">
    <g id="map">
      <g id="departements">
        <polygon class="departement" points="183.82 318 190.97 318.72 195.98 321.22 198.45 321.74 200.63 319.43 207.07 312.63 208.51 307.98 209.22 302.62 210.88 301.59 208.51 295.1 202.78 293.67 203.14 284.37 204.21 279.36 204.21 279.36 198.84 274.35 189.18 269.69 182.03 266.83 182.03 266.83 178.45 271.84 174.51 277.57 169.15 283.29 169.15 289.38 164.13 290.45 159.38 290.04 160.91 294.03 159.65 295.65 163.06 297.61 161.27 307.27 168.79 305.12 170.93 309.77 174.16 318 183.82 318"/>
        <polygon class="departement" points="169.15 289.38 169.15 283.29 174.51 277.57 178.45 271.84 182.03 266.83 187.39 261.82 190.97 253.59 190.97 244.65 189.99 242.09 188.47 242.86 182.38 247.51 175.59 249.3 166.64 248.58 164.58 247.42 163.78 248.58 159.13 250.73 155.91 253.23 156.26 263.25 147.32 263.61 147.32 269.34 153.4 278.64 152.69 283.65 159.13 289.38 159.38 290.04 164.13 290.45 169.15 289.38"/>
        <polygon class="departement" points="229.62 101.87 234.99 103.66 238.56 103.66 243.57 104.02 248.58 100.8 249.95 97.93 239.99 94 232.12 93.28 221.75 93.28 220.2 91.08 217.45 93.28 216.95 98.07 220.67 99.37 229.62 101.87"/>
        <polygon class="departement" points="232.12 93.28 239.99 94 249.95 97.93 249.95 97.93 253.59 99.37 264.33 99.01 265.67 96.63 267.55 93.28 262.89 89.71 263.25 85.77 267.19 80.76 266.83 71.82 267.19 66.45 259.68 68.95 252.88 73.25 249.3 74.32 242.5 70.03 232.84 68.24 223.53 67.16 220.25 64.84 219.24 73.61 219.6 82.19 218.49 81.94 221.03 86.49 219.24 89.71 220.2 91.08 220.2 91.08 221.75 93.28 232.12 93.28"/>
        <polygon class="departement" points="309.77 237.49 309.77 242.35 309.77 242.35 309.77 246.44 305.12 249.3 307.62 257.17 308.34 265.04 309.41 270.41 315.85 273.99 319.07 275.06 320.86 279 322.63 280.02 324.44 277.21 324.44 273.27 330.88 270.05 333.39 266.47 335.45 263.13 328.38 260.03 321.94 255.74 321.94 247.87 323.32 242.13 320.51 237.49 309.77 237.49"/>
        <polygon class="departement" points="193.48 127.99 192.4 134.08 187.39 135.51 189.9 143.02 189.64 145.89 194.19 145.89 199.92 150.9 204.93 153.4 211.73 151.97 221.03 148.39 226.75 142.31 227.33 138.73 227.33 138.73 228.19 133.36 225.09 130.26 225.09 130.26 224.25 129.43 220.67 126.56 216.38 115.83 214.23 107.96 213.51 102.95 210.65 101.52 210.65 107.24 208.15 113.32 203.85 113.32 195.27 117.97 190.19 119.18 191.33 121.55 193.48 127.99"/>
        <polygon class="departement" points="154.47 197.77 156.64 199.65 161.27 193.48 162.86 194.54 163.06 189.18 167.35 179.16 168.55 172.72 166.64 172.72 158.41 169.86 151.25 167.36 147.43 162.84 145.17 164.85 137.3 165.21 125.49 164.13 120.46 162.25 120.12 163.42 122.27 169.5 125.13 174.87 130.86 179.88 130.5 184.17 117.97 185.25 119.41 189.54 122.27 194.19 120.12 198.13 119.32 198.42 123.7 201.71 131.22 203.85 144.46 200.28 154.47 197.77"/>
        <polygon class="departement" points="214.23 107.96 216.38 115.83 220.67 126.56 224.25 129.43 225.09 130.26 227.47 129.07 229.97 120.48 233.91 115.11 234.43 112.69 234.27 112.61 234.43 112.69 234.99 110.1 234.99 103.66 234.99 103.66 229.62 101.87 220.67 99.37 216.95 98.07 216.74 100.08 210.65 101.52 213.51 102.95 214.23 107.96"/>
        <polygon class="departement" points="137.3 165.21 145.17 164.85 147.43 162.84 147.43 162.84 148.39 161.99 148.75 157.34 152.33 151.97 153.76 143.74 156.62 136.94 159.13 132.29 156.98 128.35 153.04 125.49 143.02 130.5 135.51 131.93 132.43 126.92 125.48 126.92 126.2 136.58 124.06 143.74 125.13 152.33 122.27 155.91 120.46 162.25 125.49 164.13 137.3 165.21"/>
        <polygon class="departement" points="143.02 130.5 153.04 125.49 156.98 128.35 159.13 132.29 159.13 132.29 163.78 132.65 169.5 128.71 174.15 129.78 174.15 136.58 179.52 138.73 185.6 142.66 189.9 143.02 189.9 143.02 187.39 135.51 192.4 134.08 193.48 127.99 191.33 121.55 190.19 119.18 187.75 119.76 183.81 114.4 178.09 109.03 175.94 105.81 168.07 105.81 161.27 109.75 152.68 110.46 144.81 110.1 136.94 113.32 132.61 115.96 136.22 120.12 132.65 126.92 132.43 126.92 135.51 131.93 143.02 130.5"/>
        <polygon class="departement" points="250.01 363.44 246.08 354.5 242.86 348.06 233.55 343.41 226.4 344.12 219.24 346.63 217.45 350.21 213.16 355.93 217.09 362.01 222.46 370.24 229.98 377.04 229.98 381.34 234.27 380.26 239.28 379.9 248.58 379.9 251.44 372.03 256.1 370.6 260.39 365.59 260.39 365.59 255.02 363.44 250.01 363.44"/>
        <polygon class="departement" points="317.8 336.88 318.36 336.97 317.97 336.56 317.8 336.88"/>
        <polygon class="departement" points="336.25 339.83 326.95 338.4 318.36 336.97 321.22 345.2 326.23 352.71 322.31 356.25 327.31 357.36 334.1 364.88 340.54 365.95 350.21 369.89 356.65 365.95 356.65 365.95 350.56 355.93 348.06 347.34 343.05 342.69 336.25 339.83"/>
        <polygon class="departement" points="317.97 336.56 319.07 334.46 321.22 323.01 324.8 309.41 324.8 298.68 323.73 286.15 323.73 286.15 320.51 283.29 320.51 283.29 316.93 286.15 316.93 291.16 313.71 292.6 308.7 302.97 299.39 309.77 292.24 314.06 296.17 325.16 295.73 328.92 298.68 329.09 301.9 335.54 308.7 335.54 317.8 336.88 317.97 336.56 317.97 336.56"/>
        <polygon class="departement" points="330.88 270.05 324.44 273.27 324.44 277.21 322.63 280.02 322.63 280.02 320.51 283.29 323.73 286.15 326.59 286.15 334.82 286.51 337.68 296.53 346.99 297.96 347.34 312.28 356.29 314.42 358.08 318.72 359.87 314.78 364.52 312.99 369.89 309.77 376.69 309.41 375.61 303.69 370.96 300.47 372.59 296.04 372.59 296.04 373.46 293.67 369.89 291.52 370.24 281.86 363.09 278.28 359.87 280.07 354.5 279 350.78 271.56 350.78 271.56 349.49 268.98 344.84 260.39 340.54 259.68 336.25 261.82 335.45 263.13 335.45 263.13 333.39 266.47 330.88 270.05"/>
        <polygon class="departement" points="174.51 349.85 180.59 348.42 185.6 346.63 186.97 347.87 188.47 344.12 192.4 338.04 191.33 332.67 198.84 332.67 194.55 325.87 198.45 321.74 195.98 321.22 190.97 318.72 183.82 318 174.16 318 170.93 309.77 166.28 314.42 167 320.86 160.56 325.51 159.48 333.03 159.48 338.04 156.05 339.58 156.98 343.76 165.57 345.91 164.95 351.63 168.43 352 174.51 349.85"/>
        <polygon class="departement" points="347.34 312.28 346.99 297.96 337.68 296.53 334.82 286.51 326.59 286.15 323.73 286.15 324.8 298.68 324.8 309.41 321.22 323.01 319.07 334.46 317.97 336.56 318.36 336.97 326.95 338.4 336.25 339.83 343.05 342.69 348.06 347.34 348.06 347.34 352.75 341.98 352.75 341.98 353.07 341.62 352.71 336.61 346.27 333.03 346.27 328.38 352 329.09 353.43 320.51 358.08 318.72 356.29 314.42 347.34 312.28"/>
        <polygon class="departement" points="189.54 350.21 186.97 347.87 186.97 347.87 185.6 346.63 180.59 348.42 174.51 349.85 168.43 352 164.95 351.63 164.49 355.93 160.91 355.93 158.77 353.07 154.47 355.57 154.47 361.3 153.76 370.24 156.26 372.75 160.2 371.32 167 378.12 167.71 383.48 172.37 383.48 176.66 385.99 181.31 385.99 181.42 386.34 184.53 384.56 188.47 380.26 196.34 382.77 198.13 379.55 198.13 375.61 201.71 373.46 200.99 369.89 196.7 365.59 192.76 360.23 192.76 360.23 189.9 354.86 189.54 350.21"/>
        <polygon class="departement" points="219.24 346.63 226.4 344.12 226.4 344.12 227.47 338.4 224.61 335.54 224.61 335.54 219.6 337.32 209.58 339.11 202.78 338.75 198.84 332.67 198.84 332.67 191.33 332.67 192.4 338.04 188.47 344.12 186.97 347.87 189.54 350.21 189.9 354.86 192.76 360.23 201.71 363.8 205.29 361.3 206.36 358.79 213.16 355.93 213.16 355.93 217.45 350.21 219.24 346.63"/>
        <polygon class="departement" points="266.12 324.8 262.85 319.28 262.85 319.28 261.46 316.93 257.17 308.7 252.88 305.83 249.66 307.62 247.51 312.28 245.36 319.79 238.21 319.43 234.27 322.65 227.47 324.8 222.82 328.38 224.61 335.54 227.47 338.4 226.4 344.12 233.55 343.41 242.86 348.06 246.08 354.5 250.01 363.44 255.02 363.44 260.39 365.59 265.04 360.23 271.48 360.23 275.06 358.08 277.79 357.69 277.57 350.21 273.63 345.91 272.92 340.19 272.92 340.19 268.26 336.25 266.12 324.8"/>
        <polygon class="departement" points="253.59 99.37 249.95 97.93 248.58 100.8 248.94 110.1 247.87 116.19 247.87 133 243.33 136.94 246.44 141.95 247.51 146.6 253.95 146.24 261.07 142.82 261.07 142.82 262.89 141.95 265.04 134.79 272.2 133.72 275.78 133 275.78 133 281.44 122.19 278.28 119.41 278.6 111.86 274.35 108.31 267.9 102.23 265.67 96.63 264.33 99.01 253.59 99.37"/>
        <polygon class="departement" points="292.24 314.06 284.72 311.2 277.92 307.27 273.29 305.86 272.56 308.34 265.4 312.28 264.69 319.07 262.85 319.28 266.12 324.8 268.26 336.25 272.92 340.19 275.42 341.62 277.57 346.63 284.37 346.63 286.15 343.05 291.16 345.2 294.38 343.05 293.67 334.82 295.46 331.24 295.73 328.92 295.73 328.92 296.17 325.16 292.24 314.06"/>
        <polygon class="departement" points="163.78 248.58 164.58 247.42 164.58 247.42 167 243.93 167 236.77 162.35 234.63 160.2 224.97 161.27 214.95 159.84 202.42 156.64 199.65 156.64 199.65 154.47 197.77 144.46 200.28 131.22 203.85 135.51 212.44 140.16 222.46 140.16 228.9 142.31 234.27 138.73 237.13 134.61 237.13 135.87 240.71 147.32 248.22 155.91 253.23 155.91 253.23 159.13 250.73 163.78 248.58"/>
        <polygon class="departement" points="197.41 235.34 200.63 232.12 200.57 231.69 200.57 231.69 199.92 227.47 193.84 223.89 190.82 216.21 190.82 216.21 189.9 213.87 183.82 205.64 172.01 204.93 171.65 198.84 167.71 197.77 162.86 194.54 162.86 194.54 161.27 193.48 156.64 199.65 159.84 202.42 161.27 214.95 160.2 224.97 162.35 234.63 167 236.77 167 243.93 164.58 247.42 166.64 248.58 175.59 249.3 182.38 247.51 188.47 242.86 189.99 242.09 189.99 242.09 194.19 240 197.41 235.34"/>
        <polygon class="departement" points="213.87 163.06 219.24 169.5 223.53 168.79 230.33 168.79 236.77 168.43 236.77 170.93 250.37 178.09 253.95 178.09 259.68 175.23 259.68 175.23 260.19 173.54 260.19 173.54 261.11 170.58 257.53 165.21 262.18 163.06 262.89 159.48 267.19 155.19 267.19 150.54 261.07 142.82 253.95 146.24 247.51 146.6 246.44 141.95 243.33 136.94 242.5 137.66 229.97 138.73 227.33 138.73 226.75 142.31 221.03 148.39 211.73 151.97 213.87 155.91 213.87 163.06"/>
        <polygon class="departement" points="242.5 137.66 243.33 136.94 243.33 136.94 247.87 133 247.87 116.19 247.87 116.19 241.78 116.19 234.43 112.69 233.91 115.11 229.97 120.48 227.47 129.07 225.09 130.26 228.19 133.36 227.33 138.73 229.97 138.73 242.5 137.66"/>
        <polygon class="departement" points="171.65 198.84 172.01 204.93 183.82 205.64 189.9 213.87 190.82 216.21 192.76 215.66 196.34 210.29 198.49 203.5 203.14 203.5 207.43 196.34 205.72 194.01 205.72 194.01 202.42 189.54 198.84 183.46 197.77 174.87 189.9 169.5 183.94 166.12 183.46 167 175.23 172.72 168.55 172.72 167.35 179.16 163.06 189.18 162.86 194.54 167.71 197.77 171.65 198.84"/>
        <polygon class="departement" points="183.46 167 183.94 166.12 183.94 166.12 187.75 159.13 189.54 146.96 189.64 145.89 189.64 145.89 189.9 143.02 185.6 142.66 179.52 138.73 174.15 136.58 174.15 129.78 169.5 128.71 163.78 132.65 159.13 132.29 156.62 136.94 153.76 143.74 152.33 151.97 148.75 157.34 148.39 161.99 147.43 162.84 151.25 167.36 158.41 169.86 166.64 172.72 168.55 172.72 168.55 172.72 175.23 172.72 183.46 167"/>
        <polygon class="departement" points="247.87 116.19 248.94 110.1 248.58 100.8 248.58 100.8 243.57 104.02 238.56 103.66 234.99 103.66 234.99 110.1 234.43 112.69 241.78 116.19 247.87 116.19"/>
        <polygon class="departement" points="281.44 122.19 281.44 122.19 284.37 124.77 291.52 125.85 298.68 119.77 306.19 116.54 308.34 124.06 315.5 125.49 318.16 125.37 318.16 125.37 323.37 125.13 328.76 119.4 328.76 119.4 329.09 119.05 328.38 114.75 331.24 107.24 331.6 89.71 322.3 90.06 314.06 88.63 303.33 83.62 298.94 81.22 298.68 84.34 292.6 83.27 287.94 86.13 284.37 86.84 285.08 92.93 286.15 96.86 284.37 104.38 278.64 111.89 278.6 111.86 278.28 119.41 281.44 122.19"/>
        <polygon class="departement" points="225.68 232.12 233.91 232.12 233.91 232.12 235.7 224.25 233.91 216.74 232.48 210.29 234.63 206.72 230.33 198.84 224.25 198.49 222.1 195.98 223.53 190.97 218.88 189.54 213.51 189.54 209.22 192.4 205.72 194.01 207.43 196.34 203.14 203.5 198.49 203.5 196.34 210.29 192.76 215.66 190.82 216.21 193.84 223.89 199.92 227.47 200.57 231.69 207.43 233.2 210.53 232.79 210.53 232.79 215.66 232.12 225.68 232.12"/>
        <polygon class="departement" points="248.22 257.53 242.86 258.96 247.15 264.33 244.29 265.76 247.51 270.05 247.15 281.5 253.95 282.93 262.9 287.59 262.9 287.59 268.98 283.65 275.42 281.14 285.08 285.08 292.95 282.22 292.95 282.22 295.46 276.85 292.24 270.05 286.15 260.03 286.15 254.31 286.15 254.31 279 251.09 267.19 247.15 260.03 240.71 252.52 243.93 247.18 245.64 248.58 250.01 248.22 257.53"/>
        <polygon class="departement" points="250.37 178.09 236.77 170.93 235.34 175.59 234.99 184.17 229.97 189.18 223.53 190.97 222.1 195.98 224.25 198.49 230.33 198.84 234.63 206.72 232.48 210.29 233.91 216.74 235.7 224.25 233.91 232.12 239.28 231.41 239.28 231.41 244.29 227.47 249.3 226.75 250.01 219.24 255.38 214.59 262.4 212.48 262.4 212.48 262.54 212.44 265.4 203.85 262.89 195.27 259.32 185.96 260.39 180.95 259.68 175.23 253.95 178.09 250.37 178.09"/>
        <polygon class="departement" points="225.68 232.12 215.66 232.12 210.53 232.79 210.29 233.91 208.86 242.86 213.51 250.73 213.51 257.17 218.53 260.03 224.97 262.54 225.59 267.36 229.26 265.04 237.13 267.55 244.29 265.76 247.15 264.33 242.86 258.96 248.22 257.53 248.58 250.01 247.18 245.64 247.18 245.64 245.36 240 239.28 231.41 233.91 232.12 225.68 232.12"/>
        <polygon class="departement" points="187.75 159.13 183.94 166.12 189.9 169.5 197.77 174.87 198.84 183.46 202.42 189.54 205.72 194.01 209.22 192.4 213.51 189.54 218.88 189.54 223.53 190.97 223.53 190.97 229.97 189.18 234.99 184.17 235.34 175.59 236.77 170.93 236.77 170.93 236.77 168.43 230.33 168.79 223.53 168.79 219.24 169.5 213.87 163.06 213.87 155.91 211.73 151.97 211.73 151.97 204.93 153.4 199.92 150.9 194.19 145.89 189.64 145.89 189.54 146.96 187.75 159.13"/>
        <polygon class="departement" points="222.46 269.34 225.59 267.36 224.97 262.54 218.53 260.03 213.51 257.17 213.51 250.73 208.86 242.86 210.29 233.91 210.53 232.79 207.43 233.2 200.57 231.69 200.63 232.12 197.41 235.34 194.19 240 189.99 242.09 190.97 244.65 190.97 253.59 187.39 261.82 182.03 266.83 189.18 269.69 198.84 274.35 204.21 279.36 211.01 275.42 222.46 269.34"/>
        <polygon class="departement" points="292.6 184.53 286.15 180.59 280.07 177.02 273.99 179.16 266.83 176.3 263.25 174.15 260.19 173.54 259.68 175.23 260.39 180.95 259.32 185.96 262.89 195.27 265.4 203.85 262.54 212.44 262.4 212.48 268.98 218.88 276.49 218.53 280.79 218.53 284.72 214.23 292.6 215.31 299.75 212.8 298.32 202.78 298.32 196.7 306.19 194.55 302.26 188.11 299.32 182.97 298.68 184.53 292.6 184.53"/>
        <polygon class="departement" points="326.23 145.53 325.16 134.44 318.36 133 318.16 125.37 315.5 125.49 308.34 124.06 306.19 116.54 298.68 119.77 291.52 125.85 284.37 124.77 281.44 122.19 275.78 133 282.58 137.3 287.58 145.17 293.31 156.98 302.26 155.19 306.92 155.61 306.92 155.61 310.13 155.91 318 154.47 319.41 151.78 319.41 151.78 321.94 146.96 326.23 145.53"/>
        <polygon class="departement" points="318.16 125.37 318.36 133 325.16 134.44 326.23 145.53 321.94 146.96 319.41 151.78 324.08 154.12 328.74 158.41 329.45 163.06 330.52 167.71 337.32 168.43 340.19 172.01 344.84 172.01 346.99 169.15 346.99 169.15 355.57 167 357.72 158.77 358.13 156.49 358.13 156.49 358.44 154.83 353.07 146.24 355.21 140.88 348.06 135.51 344.48 132.65 344.88 129.58 344.48 129.43 334.46 124.06 328.76 119.4 323.37 125.13 318.16 125.37"/>
        <polygon class="departement" points="276.49 218.53 268.98 218.88 262.4 212.48 255.38 214.59 250.01 219.24 249.3 226.75 244.29 227.47 239.28 231.41 245.36 240 247.18 245.64 252.52 243.93 260.03 240.71 267.19 247.15 279 251.09 286.15 254.31 289.38 250.73 289.38 240.71 292.24 239.64 297.96 234.63 295.1 227.83 287.94 227.11 287.94 218.17 284.72 214.23 280.79 218.53 276.49 218.53"/>
        <polygon class="departement" points="293.31 156.98 287.58 145.17 282.58 137.3 275.78 133 272.2 133.72 265.04 134.79 262.89 141.95 261.07 142.82 267.19 150.54 267.19 155.19 262.89 159.48 262.18 163.06 257.53 165.21 261.11 170.58 260.19 173.54 263.25 174.15 266.83 176.3 273.99 179.16 280.07 177.02 286.15 180.59 292.6 184.53 298.68 184.53 299.32 182.97 299.32 182.97 301.18 178.45 305.12 168.43 307.98 160.91 306.92 155.61 302.26 155.19 293.31 156.98"/>
        <polygon class="departement" points="219.96 303.69 226.04 303.69 231.05 303.69 231.09 303.79 233.91 300.82 236.42 290.45 241.07 284.37 247.15 281.5 247.15 281.5 247.51 270.05 244.29 265.76 244.29 265.76 237.13 267.55 229.26 265.04 225.59 267.36 225.59 267.36 222.46 269.34 211.01 275.42 204.21 279.36 203.14 284.37 202.78 293.67 208.51 295.1 210.88 301.59 213.87 299.75 219.96 303.69"/>
        <polygon class="departement" points="232.48 307.27 231.09 303.79 231.09 303.79 231.05 303.69 226.04 303.69 219.96 303.69 213.87 299.75 210.88 301.59 210.88 301.59 209.22 302.62 208.51 307.98 207.07 312.63 200.63 319.43 198.45 321.74 198.45 321.74 194.55 325.87 198.84 332.67 202.78 338.75 209.58 339.11 219.6 337.32 224.61 335.54 222.82 328.38 227.47 324.8 234.27 322.65 233.91 313.35 232.48 307.27"/>
        <polygon class="departement" points="289.38 250.73 286.15 254.31 286.15 260.03 292.24 270.05 295.46 276.85 292.95 282.22 296.17 284.72 303.69 282.58 308.7 285.44 313.71 292.6 316.93 291.16 316.93 286.15 320.51 283.29 322.63 280.02 320.86 279 319.07 275.06 315.85 273.99 309.41 270.41 308.34 265.04 307.62 257.17 305.12 249.3 309.77 246.44 309.77 242.35 303.69 243.22 296.53 243.57 292.24 239.64 292.24 239.64 289.38 240.71 289.38 250.73"/>
        <polygon class="departement" points="273.99 296.53 269.34 288.3 262.9 287.59 253.95 282.93 247.15 281.5 241.07 284.37 236.42 290.45 233.91 300.82 231.09 303.79 232.48 307.27 233.91 313.35 234.27 322.65 238.21 319.43 245.36 319.79 247.51 312.28 249.66 307.62 252.88 305.83 257.17 308.7 261.46 316.93 262.85 319.28 264.69 319.07 265.4 312.28 272.56 308.34 273.29 305.86 273.29 305.86 274.35 302.26 273.99 296.53"/>
        <polygon class="departement" points="303.69 282.58 296.17 284.72 292.95 282.22 285.08 285.08 275.42 281.14 268.98 283.65 262.9 287.59 269.34 288.3 273.99 296.53 274.35 302.26 273.29 305.86 277.92 307.27 284.72 311.2 292.24 314.06 292.24 314.06 299.39 309.77 308.7 302.97 313.71 292.6 313.71 292.6 308.7 285.44 303.69 282.58"/>
        <polygon class="departement" points="389.21 366.67 387.78 363.09 384.2 362.01 383.65 361.29 381.69 362.73 375.97 363.8 369.53 363.8 364.88 366.31 356.65 365.95 358.08 369.17 354.86 375.25 355.21 383.13 354.5 389.21 353.19 391.57 355.69 391.95 365.24 398.15 375.73 396.72 384.8 392.91 386.7 384.8 391.48 379.55 395.17 376.55 394.58 370.6 389.21 366.67"/>
        <polygon class="departement" points="257.53 386.7 248.58 386.7 248.58 379.9 248.58 379.9 239.28 379.9 234.27 380.26 229.98 381.34 223.89 381.34 219.24 387.06 216.63 388.37 221.39 394.58 228.19 399.59 228.19 406.38 224.61 410.32 228.19 413.9 234.63 414.62 235.34 418.19 241.07 414.97 241.43 409.61 250.73 409.61 258.6 406.03 263.03 408.24 262.18 404.83 266 396.72 271.93 390.13 268.26 387.06 257.53 386.7"/>
        <polygon class="departement" points="295.1 358.08 290.81 353.78 287.23 352.71 282.58 357 277.79 357.69 277.79 357.69 275.06 358.08 271.48 360.23 265.04 360.23 260.39 365.59 256.1 370.6 251.44 372.03 248.58 379.9 248.58 386.7 257.53 386.7 268.26 387.06 271.93 390.13 274.58 387.18 281.26 380.98 292.71 375.25 303.21 370 301.9 364.16 295.1 358.08"/>
        <polygon class="departement" points="389.57 345.91 393.86 354.14 391.71 357 387.06 358.79 383.65 361.29 384.2 362.01 387.78 363.09 389.21 366.67 394.58 370.6 395.17 376.55 399.11 373.35 409.13 365.71 413.42 356.17 419.62 349.49 419.15 343.29 409.61 348.06 401.49 342.33 394.34 337.08 393.75 334.27 391 336.61 389.57 345.91"/>
        <polygon class="departement" points="317.29 367.38 318.72 359.51 322.31 356.25 322.31 356.25 326.23 352.71 321.22 345.2 318.36 336.97 317.8 336.88 317.8 336.88 308.7 335.54 301.9 335.54 298.68 329.09 295.73 328.92 295.46 331.24 293.67 334.82 294.38 343.05 291.16 345.2 286.15 343.05 284.37 346.63 277.57 346.63 275.42 341.62 272.92 340.19 273.63 345.91 277.57 350.21 277.79 357.69 282.58 357 287.23 352.71 290.81 353.78 295.1 358.08 301.9 364.16 303.21 370 311.68 371.57 312.99 367.38 317.29 367.38"/>
        <polygon class="departement" points="355.21 383.13 354.86 375.25 358.08 369.17 356.65 365.95 350.21 369.89 340.54 365.95 334.1 364.88 327.31 357.36 322.31 356.25 318.72 359.51 317.29 367.38 312.99 367.38 311.68 371.57 316.09 372.39 319.91 380.98 325.63 380.02 331.36 380.02 332.31 375.73 336.13 375.73 337.56 382.89 336.13 386.7 342.33 386.7 349.49 391 353.19 391.57 354.5 389.21 355.21 383.13"/>
        <polygon class="departement" points="250.73 409.61 241.43 409.61 241.07 414.97 235.34 418.19 228.9 420.7 222.16 423.01 221.63 426.78 230.22 426.78 233.08 431.07 242.62 430.6 250.73 432.98 257.41 429.17 267.91 427.74 263.03 408.24 258.6 406.03 250.73 409.61"/>
        <polygon class="departement" points="134.79 374.18 147.32 373.11 153.76 370.24 153.76 370.24 154.47 361.3 154.47 355.57 158.77 353.07 160.91 355.93 164.49 355.93 164.95 351.63 164.95 351.63 165.57 345.91 156.98 343.76 156.05 339.58 152.33 341.26 148.75 339.83 145.53 334.46 141.59 330.17 137.3 330.88 127.64 327.66 119.27 324.31 118.09 335.65 113.8 359.99 110.94 376.21 121.91 377.04 134.79 374.18"/>
        <polygon class="departement" points="153.76 399.23 157.69 395.29 160.91 388.49 160.91 382.41 159.48 375.97 156.26 372.75 153.76 370.24 147.32 373.11 134.79 374.18 121.91 377.04 110.94 376.21 107.12 381.46 102.83 382.89 106.17 387.66 111.89 385.75 115.71 386.7 115.71 390.52 114.75 397.68 131.45 403.88 136.7 404.36 142.43 410.56 151.01 410.08 151.61 404.95 153.76 399.23"/>
        <polygon class="departement" points="179.88 409.25 182.03 404.6 180.24 399.94 176.66 394.93 180.24 392.43 182.38 389.57 181.42 386.34 181.42 386.34 181.31 385.99 176.66 385.99 172.37 383.48 167.71 383.48 167 378.12 160.2 371.32 156.26 372.75 159.48 375.97 160.91 382.41 160.91 388.49 157.69 395.29 153.76 399.23 151.61 404.95 151.01 410.08 160.08 414.85 166.28 415.81 178.69 416.76 176.66 409.25 179.88 409.25"/>
        <polygon class="departement" points="235.34 418.19 235.34 418.19 234.63 414.62 228.19 413.9 224.61 410.32 228.19 406.38 228.19 399.59 221.39 394.58 216.63 388.37 211.37 391 206.72 391.36 205.64 396.01 200.28 394.22 196.34 398.15 192.05 404.6 191.05 407.74 201.11 413.42 213.99 418.67 222.58 420.1 222.16 423.01 228.9 420.7 235.34 418.19"/>
        <polygon class="departement" points="196.34 398.15 200.28 394.22 205.64 396.01 206.72 391.36 211.37 391 216.63 388.37 216.63 388.37 219.24 387.06 223.89 381.34 229.98 381.34 229.98 381.34 229.98 377.04 222.46 370.24 217.09 362.01 213.16 355.93 206.36 358.79 205.29 361.3 201.71 363.8 192.76 360.23 196.7 365.59 200.99 369.89 201.71 373.46 198.13 375.61 198.13 379.55 196.34 382.77 188.47 380.26 184.53 384.56 181.42 386.34 182.38 389.57 180.24 392.43 176.66 394.93 180.24 399.94 182.03 404.6 179.88 409.25 176.66 409.25 178.69 416.76 185.37 416.28 184.89 407.22 190.14 407.22 191.05 407.74 192.05 404.6 196.34 398.15"/>
        <polygon class="departement" points="375.25 297.96 372.59 296.04 370.96 300.47 375.61 303.69 376.69 309.41 369.89 309.77 364.52 312.99 359.87 314.78 358.08 318.72 353.43 320.51 352 329.09 346.27 328.38 346.27 333.03 352.71 336.61 353.07 341.62 352.75 341.98 359.51 341.98 364.16 329.81 369.17 328.02 373.82 330.88 379.19 327.66 385.63 329.09 391.36 322.3 394.92 320.97 395.29 319.91 398.15 313.23 397.68 308.46 389.57 308.46 388.61 303.21 385.27 298.92 385.9 296.62 381.34 297.96 375.25 297.96"/>
        <polygon class="departement" points="389.54 174.9 388.13 176.3 375.61 179.52 368.1 183.1 359.15 189.18 354.48 189.5 357.72 195.98 358.08 203.14 365.95 208.15 369.17 213.52 366.67 218.53 366.67 223.89 368.34 223.99 369.05 220.67 376.69 214.95 379.55 204.93 386.7 199.2 392.43 193.48 399.58 184.41 395.29 180.59 396.06 178.67 391.71 176.66 389.54 174.9"/>
        <polygon class="departement" points="366.67 218.53 369.17 213.52 365.95 208.15 358.08 203.14 357.72 195.98 354.48 189.5 348.42 189.9 345.2 193.12 342.33 199.56 338.47 201.77 340.19 208.15 346.27 212.08 342.33 214.23 342.69 222.1 341.98 228.54 338.75 230.33 338.75 230.33 345.2 236.77 348.42 238.92 352.35 235.34 355.93 238.56 359.51 237.85 367.62 227.35 368.34 223.99 366.67 223.89 366.67 218.53"/>
        <polygon class="departement" points="398.87 171.29 399.94 164.85 392.79 161.63 391 173.44 389.54 174.9 391.71 176.66 396.06 178.67 397.2 175.82 402.61 176.55 401.73 174.16 398.87 171.29"/>
        <polygon class="departement" points="414.26 142.31 406.74 138.37 404.04 136.83 402.09 141.59 398.51 152.69 394.93 157.34 392.79 161.63 399.94 164.85 398.87 171.29 401.73 174.16 402.61 176.55 404.36 176.78 411.51 180.59 416.28 173.92 414.85 164.37 416.76 151.97 418.45 147.47 417.83 147.32 414.26 142.31"/>
        <polygon class="departement" points="426.78 100.44 419.23 100.44 416.05 104.74 409.6 104.74 399.94 100.8 396.37 106.53 400.3 112.61 407.46 110.82 409.25 117.98 405.31 124.77 400.71 125.82 401.37 127.64 401.73 135.51 404.04 136.83 404.04 136.83 406.74 138.37 414.26 142.31 417.83 147.32 418.45 147.47 421.06 140.52 425.35 124.3 429.64 116.66 439.66 103.78 434.89 100.92 426.78 100.44"/>
        <polygon class="departement" points="137.3 330.88 141.59 330.17 145.53 334.46 148.75 339.83 152.33 341.26 156.05 339.58 156.05 339.58 159.48 338.04 159.48 333.03 160.56 325.51 167 320.86 166.28 314.42 170.93 309.77 170.93 309.77 168.79 305.12 161.27 307.27 163.06 297.61 159.65 295.65 158.41 297.25 151.97 297.25 146.24 293.67 141.59 285.8 138.13 285.56 140.52 299.39 144.34 303.21 136.7 298.92 134.32 287.47 129.54 279.83 122.87 279.36 121.91 293.19 120 312.28 124.77 316.57 124.3 320.86 119.53 321.82 119.27 324.31 127.64 327.66 137.3 330.88"/>
        <polygon class="departement" points="355.93 238.56 352.35 235.34 348.42 238.92 345.2 236.77 338.75 230.33 338.4 227.47 335.53 226.4 328.38 226.4 324.44 237.49 323.32 242.13 323.32 242.13 321.94 247.87 321.94 255.74 328.38 260.03 335.45 263.13 336.25 261.82 340.54 259.68 344.84 260.39 349.49 268.98 350.78 271.56 354.86 268.62 358.08 261.46 360.29 259.69 358.44 257.53 358.08 250.01 359.51 246.08 362.18 244.87 363.8 238.8 367.62 235.94 367.62 227.35 359.51 237.85 355.93 238.56"/>
        <polygon class="departement" points="385.63 329.09 379.19 327.66 373.82 330.88 369.17 328.02 364.16 329.81 359.51 341.98 352.75 341.98 348.06 347.34 350.56 355.93 356.65 365.95 356.65 365.95 364.88 366.31 369.53 363.8 375.97 363.8 381.69 362.73 383.65 361.29 383.65 361.29 387.06 358.79 391.71 357 393.86 354.14 389.57 345.91 391 336.61 393.75 334.27 392.43 328.02 394.92 320.97 391.36 322.3 385.63 329.09"/>
        <polygon class="departement" points="382.41 257.53 379.55 258.96 377.4 265.04 370.96 267.55 362.73 262.54 360.29 259.69 358.08 261.46 354.86 268.62 350.78 271.56 354.5 279 359.87 280.07 363.09 278.28 370.24 281.86 369.89 291.52 373.46 293.67 372.59 296.04 375.25 297.96 381.34 297.96 385.9 296.62 386.7 293.67 396.72 293.67 401.49 289.38 402.45 280.31 396.72 274.11 390.52 266 390.79 264.74 387.06 264.33 382.41 257.53"/>
        <polygon class="departement" points="321.94 208.15 314.06 203.14 306.19 194.55 298.32 196.7 298.32 202.78 299.75 212.8 292.6 215.31 284.72 214.23 287.94 218.17 287.94 227.11 295.1 227.83 297.96 234.63 292.24 239.64 296.53 243.57 303.69 243.22 309.77 242.35 309.77 237.49 320.51 237.49 323.32 242.13 324.44 237.49 328.38 226.4 335.53 226.4 338.4 227.47 338.75 230.33 341.98 228.54 342.69 222.1 342.33 214.23 346.27 212.08 340.19 208.15 338.47 201.77 334.82 203.85 321.94 208.15"/>
        <polygon class="departement" points="358.08 250.01 358.44 257.53 360.29 259.69 360.29 259.69 362.73 262.54 370.96 267.55 377.4 265.04 379.55 258.96 382.41 257.53 387.06 264.33 390.79 264.74 391.95 259.32 398.63 257.89 396.72 249.78 390.52 244.05 390.04 234.03 383.84 232.12 376.21 234.51 373.82 241.66 369.53 245.96 361.89 245.96 362.18 244.87 359.51 246.08 358.08 250.01"/>
        <polygon class="departement" points="282.58 49.99 267.55 50.7 268.62 54.64 266.12 59.65 267.19 66.45 266.83 71.82 267.19 80.76 263.25 85.77 262.89 89.71 267.55 93.28 265.67 96.63 267.9 102.23 274.35 108.31 278.6 111.86 278.6 111.86 278.64 111.89 284.37 104.38 286.15 96.86 285.08 92.93 284.37 86.84 287.94 86.13 292.6 83.27 298.68 84.34 298.94 81.22 298.94 81.22 299.04 80.05 299.75 72.17 304.05 66.09 305.12 61.8 303.53 55.43 301.54 55 301.79 52.93 292.24 50.7 282.58 49.99"/>
        <polygon class="departement" points="304.05 66.09 299.75 72.17 299.04 80.05 298.94 81.22 303.33 83.62 314.06 88.63 322.3 90.06 331.6 89.71 331.6 89.71 333.39 81.83 333.39 75.04 340.9 75.04 342.39 70.27 337.32 68.24 325.87 62.87 324.8 57.86 323.37 52.49 321.94 47.13 319.07 49.63 315.14 55 309.77 56.79 303.53 55.43 305.12 61.8 304.05 66.09"/>
        <polygon class="departement" points="234.63 41.04 245 43.91 260.39 50.35 262.55 50.45 267.19 48.2 267.9 40.33 263.25 36.03 263.97 29.59 257.17 25.66 255.74 20.65 251.44 21.72 243.22 21.36 240.71 14.21 234.98 7.76 232.17 3.83 220.19 6.93 215.42 10.27 214.95 29.83 214.95 33.98 224.25 35.67 234.63 41.04"/>
        <polygon class="departement" points="240.71 14.21 243.22 21.36 251.44 21.72 255.74 20.65 257.17 25.66 263.97 29.59 263.25 36.03 267.9 40.33 267.19 48.2 262.55 50.45 267.55 50.7 282.58 49.99 292.24 50.7 301.79 52.93 302.97 43.19 296.89 37.11 289.73 37.11 287.58 39.61 284.72 36.75 284.72 29.23 277.92 28.88 271.84 26.37 269.69 17.07 266.47 13.49 261.46 16.35 259.32 18.86 253.95 15.28 248.22 7.76 246.44 0.25 233.08 3.59 232.17 3.83 234.98 7.76 240.71 14.21"/>
        <polygon class="departement" points="333.39 75.04 333.39 81.83 331.6 89.71 331.24 107.24 328.38 114.75 329.09 119.05 328.76 119.4 334.46 124.06 344.48 129.43 344.88 129.58 344.88 129.58 349.13 131.22 356.29 128.71 356.29 125.13 356.29 125.13 356.29 120.12 356.29 110.46 358.44 100.44 355.93 90.78 353.43 81.83 347.34 81.83 346.27 78.61 344.48 71.1 342.39 70.27 340.9 75.04 333.39 75.04"/>
        <polygon class="departement" points="353.43 81.83 355.93 90.78 358.44 100.44 356.29 110.46 356.29 120.12 356.29 125.13 360.22 129.07 366.67 134.44 377.76 131.93 383.84 130.86 388.13 134.08 395.29 131.57 401.37 127.64 401.37 127.64 400.71 125.82 400.71 125.82 399.94 123.7 395.29 120.12 382.41 115.83 371.68 108.67 364.16 101.52 365.95 97.22 364.52 89.71 362.09 79.25 357.72 76.83 350.56 76.47 346.27 78.61 347.34 81.83 353.43 81.83"/>
        <polygon class="departement" points="381.69 154.47 370.24 153.04 361.66 155.19 358.13 156.49 357.72 158.77 355.57 167 346.99 169.15 344.48 175.94 344.48 184.17 348.42 189.9 348.42 189.9 354.48 189.5 354.48 189.5 359.15 189.18 368.1 183.1 375.61 179.52 388.13 176.3 389.54 174.9 389.54 174.9 391 173.44 392.79 161.63 388.85 160.2 381.69 154.47"/>
        <polygon class="departement" points="218.17 57.5 220.31 64.3 220.25 64.84 223.53 67.16 232.84 68.24 242.5 70.03 249.3 74.32 252.88 73.25 259.68 68.95 267.19 66.45 267.19 66.45 266.12 59.65 268.62 54.64 267.55 50.7 267.55 50.7 262.55 50.45 262.55 50.45 260.39 50.35 245 43.91 234.63 41.04 224.25 35.67 214.95 33.98 214.95 37.94 213.04 43.19 209.7 48.91 213.51 55 218.17 57.5"/>
        <polygon class="departement" points="146.24 293.67 151.97 297.25 158.41 297.25 159.65 295.65 159.65 295.65 160.91 294.03 159.38 290.04 159.38 290.04 159.13 289.38 152.69 283.65 153.4 278.64 147.32 269.34 147.32 263.61 156.26 263.25 155.91 253.23 147.32 248.22 135.87 240.71 134.61 237.13 134.44 237.13 129.78 236.77 124.3 237.37 122.39 242.62 125.25 249.78 123.82 260.27 118.57 263.13 120 267.9 132.88 277.45 138.13 285.56 141.59 285.8 146.24 293.67"/>
        <polygon class="departement" points="388.13 134.08 383.84 130.86 377.76 131.93 366.67 134.44 360.22 129.07 356.29 125.13 356.29 128.71 349.13 131.22 344.88 129.58 344.48 132.65 348.06 135.51 355.21 140.88 353.07 146.24 358.44 154.83 358.13 156.49 361.66 155.19 370.24 153.04 381.69 154.47 388.85 160.2 392.79 161.63 394.93 157.34 398.51 152.69 402.09 141.59 404.04 136.83 401.73 135.51 401.37 127.64 395.29 131.57 388.13 134.08"/>
        <polygon class="departement" points="365.95 97.22 364.16 101.52 371.68 108.67 382.41 115.83 395.29 120.12 399.94 123.7 400.71 125.82 405.31 124.77 409.25 117.98 407.46 110.82 400.3 112.61 396.37 106.53 399.94 100.8 409.6 104.74 416.05 104.74 419.23 100.44 417.71 100.44 411.99 94.72 401.97 96.63 397.2 91.38 392.79 92.93 392.79 96.86 387.78 95.43 379.19 81.12 371.68 77.9 364.16 80.4 362.09 79.25 364.52 89.71 365.95 97.22"/>
        <polygon class="departement" points="344.48 175.94 346.99 169.15 344.84 172.01 340.19 172.01 337.32 168.43 330.52 167.71 329.45 163.06 328.74 158.41 324.08 154.12 319.41 151.78 318 154.47 310.13 155.91 306.92 155.61 307.98 160.91 305.12 168.43 301.18 178.45 299.32 182.97 302.26 188.11 306.19 194.55 306.19 194.55 314.06 203.14 321.94 208.15 334.82 203.85 338.47 201.77 338.47 201.77 342.33 199.56 345.2 193.12 348.42 189.9 344.48 184.17 344.48 175.94"/>
        <polygon class="departement" points="45.34 155.19 41.76 152.68 35.32 152.68 34.24 144.1 38.18 144.1 42.12 144.1 42.12 140.16 39.25 134.44 39.61 126.2 38.05 120.24 31.26 118.09 28.88 122.86 19.81 119.53 12.18 121.91 2.64 125.73 0.25 135.27 9.79 134.32 17.43 132.88 18.38 138.61 6.93 138.61 8.36 141.95 16.47 143.86 15.04 148.15 3.11 149.58 5.02 153.88 9.31 152.92 14.56 157.69 16.47 163.42 20.77 161.99 21.72 156.74 29.35 160.56 42.71 161.51 42.95 161.78 44.62 158.77 45.34 155.19"/>
        <polygon class="departement" points="39.25 134.44 42.12 140.16 42.12 144.1 44.98 144.1 50.7 144.81 58.22 143.02 68.59 146.6 73.96 150.18 76.83 143.74 82.4 146.53 88.99 142.66 91.5 138.73 96.15 135.87 96.15 126.92 92.95 120.89 88.04 123.34 81.83 120.96 70.38 128.11 55.12 111.42 41.28 112.85 40.33 120.96 38.05 120.24 39.61 126.2 39.25 134.44"/>
        <polygon class="departement" points="91.14 174.51 91.14 170.22 91.14 170.22 91.14 164.13 89.35 155.55 83.62 151.61 82.55 146.6 82.4 146.53 82.4 146.53 76.83 143.74 73.96 150.18 68.59 146.6 58.22 143.02 50.7 144.81 44.98 144.1 42.12 144.1 42.12 144.1 38.18 144.1 34.24 144.1 35.32 152.68 41.76 152.68 45.34 155.19 44.62 158.77 42.95 161.78 47.01 166.28 53.69 165.33 56.07 171.05 63.23 172.01 70.86 172.48 70.38 177.25 79.45 177.73 79.23 179.6 85.77 178.45 91.14 174.51"/>
        <polygon class="departement" points="110.1 206.72 114.04 206.72 116.19 199.56 119.32 198.42 119.32 198.42 120.12 198.13 122.27 194.19 119.41 189.54 117.97 185.25 130.5 184.17 130.86 179.88 125.13 174.87 122.27 169.5 120.12 163.42 111.53 161.99 104.02 167.35 92.21 170.22 91.14 170.22 91.14 174.51 85.77 178.45 79.23 179.6 78.5 185.84 84.22 190.14 92.81 187.75 99.49 189.66 101.4 193.95 96.63 194.91 89.47 192.05 86.61 196.82 93.28 202.06 106.17 208.86 110.1 206.72"/>
        <polygon class="departement" points="134.44 237.13 134.61 237.13 134.61 237.13 138.73 237.13 142.31 234.27 140.16 228.9 140.16 222.46 135.51 212.44 131.22 203.85 131.22 203.85 123.7 201.71 119.32 198.42 116.19 199.56 114.04 206.72 110.1 206.72 106.17 208.86 93.28 202.06 89.95 208.74 101.4 224.01 100.44 228.31 110.46 234.51 120.96 235.46 124.3 237.37 129.78 236.77 134.44 237.13"/>
        <polygon class="departement" points="173.44 94.72 175.94 100.44 175.94 105.81 178.09 109.03 183.81 114.4 187.75 119.76 190.19 119.18 190.19 119.18 195.27 117.97 203.85 113.32 208.15 113.32 210.65 107.24 210.65 101.52 210.65 101.52 216.74 100.08 216.95 98.07 216.95 98.07 217.45 93.28 220.2 91.08 219.24 89.71 221.03 86.49 218.49 81.94 213.16 80.76 207.07 80.05 204.57 86.49 200.99 86.49 198.13 90.06 194.91 91.14 192.4 84.7 188.47 82.91 178.69 78.97 170.83 82.71 172.37 86.13 173.44 94.72"/>
        <polygon class="departement" points="131.57 98.65 128.35 106.88 122.63 111.53 125.49 114.75 131.57 114.75 132.61 115.96 136.94 113.32 144.81 110.1 152.68 110.46 161.27 109.75 168.07 105.81 175.94 105.81 175.94 105.81 175.94 100.44 173.44 94.72 172.37 86.13 170.83 82.71 168.67 83.74 158.17 88.51 143.38 86.13 125.73 83.27 124.3 87.08 128.71 92.93 131.57 98.65"/>
        <polygon class="departement" points="188.47 82.91 192.4 84.7 194.91 91.14 198.13 90.06 200.99 86.49 204.57 86.49 207.07 80.05 213.16 80.76 218.49 81.94 218.49 81.94 219.6 82.19 219.24 73.61 220.25 64.84 220.25 64.84 220.31 64.3 218.17 57.5 213.51 55 209.7 48.91 199.68 57.98 188.23 60.37 175.35 65.61 168.19 67.52 165.33 76.59 169.14 78.97 178.69 78.97 188.47 82.91"/>
        <polygon class="departement" points="96.15 135.87 91.5 138.73 88.99 142.66 82.4 146.53 82.55 146.6 83.62 151.61 89.35 155.55 91.14 164.13 91.14 170.22 92.21 170.22 104.02 167.35 111.53 161.99 120.12 163.42 120.46 162.25 122.27 155.91 125.13 152.33 124.06 143.74 126.2 136.58 125.48 126.92 118.69 126.92 113.68 129.43 107.36 121.78 100.44 123.82 97.58 118.57 93.76 120.48 92.95 120.89 96.15 126.92 96.15 135.87"/>
        <polygon class="departement" points="118.69 126.92 125.48 126.92 125.48 126.92 132.43 126.92 132.43 126.92 132.65 126.92 136.22 120.12 132.61 115.96 132.61 115.96 131.57 114.75 125.49 114.75 122.63 111.53 128.35 106.88 131.57 98.65 128.71 92.93 124.3 87.08 115.71 76.59 117.14 67.04 111.89 67.04 109.51 70.86 96.63 67.52 99.49 83.27 107.12 87.56 109.51 111.42 109.98 116.19 115.23 120 108.55 121.43 107.36 121.78 113.68 129.43 118.69 126.92"/>
        <polygon class="departement" points="482.13 419.15 482.6 406.98 481.17 402.93 479.02 402.93 477.35 407.46 477.35 417.48 473.3 418.43 466.14 420.82 457.08 425.83 454.21 435.13 454.22 435.17 459.7 437.04 466.62 442.53 471.39 450.16 474.01 455.17 474.49 460.89 477.35 461.13 479.4 459.08 479.74 455.41 484.03 446.34 484.51 433.22 484.75 423.68 482.13 419.15"/>
        <polygon class="departement" points="474.49 460.89 474.01 455.17 471.39 450.16 466.62 442.53 459.7 437.04 454.22 435.17 454.93 445.15 455.41 453.74 460.65 462.09 461.85 469.24 461.13 474.01 467.1 477.35 472.82 483.08 474.01 481.41 474.49 475.45 475.21 471.39 478.55 468.53 479.4 459.08 477.35 461.13 474.49 460.89"/>
        <path class="departement" d="M215.66,342.33"/>
        <path class="departement" d="M215.66,342.33"/>
      </g>
      <g id="regions">
        <polygon class="region" points="317.8 336.88 318.36 336.97 317.97 336.56 317.8 336.88"/>
        <polygon class="region" points="278.28 119.41 278.6 111.86 274.35 108.31 267.9 102.23 265.67 96.63 264.33 99.01 253.59 99.37 249.95 97.93 239.99 94 232.12 93.28 221.75 93.28 220.2 91.08 217.45 93.28 216.95 98.07 216.74 100.08 210.65 101.52 213.51 102.95 214.23 107.96 216.38 115.83 220.67 126.56 224.25 129.43 225.09 130.26 228.19 133.36 227.33 138.73 229.97 138.73 242.5 137.66 243.33 136.94 246.44 141.95 247.51 146.6 253.95 146.24 261.07 142.82 262.89 141.95 265.04 134.79 272.2 133.72 275.78 133 281.44 122.19 278.28 119.41"/>
        <polygon class="region" points="262.89 159.48 267.19 155.19 267.19 150.54 261.07 142.82 253.95 146.24 247.51 146.6 246.44 141.95 243.33 136.94 242.5 137.66 229.97 138.73 227.33 138.73 228.19 133.36 225.09 130.26 224.25 129.43 220.67 126.56 216.38 115.83 214.23 107.96 213.51 102.95 210.65 101.52 210.65 107.24 208.15 113.32 203.85 113.32 195.27 117.97 190.19 119.18 191.33 121.55 193.48 127.99 192.4 134.08 187.39 135.51 189.9 143.02 189.64 145.89 189.54 146.96 187.75 159.13 183.94 166.12 183.46 167 175.23 172.72 168.55 172.72 167.35 179.16 163.06 189.18 162.86 194.54 167.71 197.77 171.65 198.84 172.01 204.93 183.82 205.64 189.9 213.87 190.82 216.21 193.84 223.89 199.92 227.47 200.57 231.69 207.43 233.2 210.53 232.79 215.66 232.12 225.68 232.12 233.91 232.12 239.28 231.41 244.29 227.47 249.3 226.75 250.01 219.24 255.38 214.59 262.4 212.48 262.54 212.44 265.4 203.85 262.89 195.27 259.32 185.96 260.39 180.95 259.68 175.23 260.19 173.54 261.11 170.58 257.53 165.21 262.18 163.06 262.89 159.48"/>
        <polygon class="region" points="398.87 171.29 399.94 164.85 392.79 161.63 391 173.44 389.54 174.9 391.71 176.66 396.06 178.67 397.2 175.82 402.61 176.55 401.73 174.16 398.87 171.29"/>
        <polygon class="region" points="419.15 343.29 409.61 348.06 401.49 342.33 394.34 337.08 393.75 334.27 392.43 328.02 394.92 320.97 395.29 319.91 398.15 313.23 397.68 308.46 389.57 308.46 388.61 303.21 385.27 298.92 385.9 296.62 381.34 297.96 375.25 297.96 372.59 296.04 370.96 300.47 375.61 303.69 376.69 309.41 369.89 309.77 364.52 312.99 359.87 314.78 358.08 318.72 353.43 320.51 352 329.09 346.27 328.38 346.27 333.03 352.71 336.61 353.07 341.62 352.75 341.98 348.06 347.34 343.05 342.69 336.25 339.83 326.95 338.4 318.36 336.97 321.22 345.2 326.23 352.71 322.31 356.25 318.72 359.51 317.29 367.38 312.99 367.38 311.68 371.57 316.09 372.39 319.91 380.98 325.63 380.02 331.36 380.02 332.31 375.73 336.13 375.73 337.56 382.89 336.13 386.7 342.33 386.7 349.49 391 353.19 391.57 355.69 391.95 365.24 398.15 375.73 396.72 384.8 392.91 386.7 384.8 391.48 379.55 395.17 376.55 399.11 373.35 409.13 365.71 413.42 356.17 419.62 349.49 419.15 343.29"/>
        <polygon class="region" points="396.72 274.11 390.52 266 390.79 264.74 391.95 259.32 398.63 257.89 396.72 249.78 390.52 244.05 390.04 234.03 383.84 232.12 376.21 234.51 373.82 241.66 369.53 245.96 361.89 245.96 362.18 244.87 363.8 238.8 367.62 235.94 367.62 227.35 359.51 237.85 355.93 238.56 352.35 235.34 348.42 238.92 345.2 236.77 338.75 230.33 338.4 227.47 335.53 226.4 328.38 226.4 324.44 237.49 323.32 242.13 320.51 237.49 309.77 237.49 309.77 242.35 303.69 243.22 296.53 243.57 292.24 239.64 297.96 234.63 295.1 227.83 287.94 227.11 287.94 218.17 284.72 214.23 280.79 218.53 276.49 218.53 268.98 218.88 262.4 212.48 255.38 214.59 250.01 219.24 249.3 226.75 244.29 227.47 239.28 231.41 245.36 240 247.18 245.64 248.58 250.01 248.22 257.53 242.86 258.96 247.15 264.33 244.29 265.76 247.51 270.05 247.15 281.5 241.07 284.37 236.42 290.45 233.91 300.82 231.09 303.79 232.48 307.27 233.91 313.35 234.27 322.65 238.21 319.43 245.36 319.79 247.51 312.28 249.66 307.62 252.88 305.83 257.17 308.7 261.46 316.93 262.85 319.28 264.69 319.07 265.4 312.28 272.56 308.34 273.29 305.86 277.92 307.27 284.72 311.2 292.24 314.06 296.17 325.16 295.73 328.92 298.68 329.09 301.9 335.54 308.7 335.54 317.8 336.88 317.97 336.56 318.36 336.97 326.95 338.4 336.25 339.83 343.05 342.69 348.06 347.34 352.75 341.98 353.07 341.62 352.71 336.61 346.27 333.03 346.27 328.38 352 329.09 353.43 320.51 358.08 318.72 359.87 314.78 364.52 312.99 369.89 309.77 376.69 309.41 375.61 303.69 370.96 300.47 372.59 296.04 375.25 297.96 381.34 297.96 385.9 296.62 386.7 293.67 396.72 293.67 401.49 289.38 402.45 280.31 396.72 274.11"/>
        <polygon class="region" points="303.53 55.43 301.54 55 301.79 52.93 302.97 43.19 296.89 37.11 289.73 37.11 287.58 39.61 284.72 36.75 284.72 29.23 277.92 28.88 271.84 26.37 269.69 17.07 266.47 13.49 261.46 16.35 259.32 18.86 253.95 15.28 248.22 7.76 246.44 0.25 233.08 3.59 232.17 3.83 220.19 6.93 215.42 10.27 214.95 29.83 214.95 33.98 214.95 37.94 213.04 43.19 209.7 48.91 213.51 55 218.17 57.5 220.31 64.3 220.25 64.84 219.24 73.61 219.6 82.19 218.49 81.94 221.03 86.49 219.24 89.71 220.2 91.08 221.75 93.28 232.12 93.28 239.99 94 249.95 97.93 253.59 99.37 264.33 99.01 265.67 96.63 267.9 102.23 274.35 108.31 278.6 111.86 278.64 111.89 284.37 104.38 286.15 96.86 285.08 92.93 284.37 86.84 287.94 86.13 292.6 83.27 298.68 84.34 298.94 81.22 299.04 80.05 299.75 72.17 304.05 66.09 305.12 61.8 303.53 55.43"/>
        <polygon class="region" points="248.58 250.01 247.18 245.64 245.36 240 239.28 231.41 233.91 232.12 225.68 232.12 215.66 232.12 210.53 232.79 207.43 233.2 200.57 231.69 199.92 227.47 193.84 223.89 190.82 216.21 189.9 213.87 183.82 205.64 172.01 204.93 171.65 198.84 167.71 197.77 162.86 194.54 161.27 193.48 156.64 199.65 154.47 197.77 144.46 200.28 131.22 203.85 135.51 212.44 140.16 222.46 140.16 228.9 142.31 234.27 138.73 237.13 134.61 237.13 134.44 237.13 129.78 236.77 124.3 237.37 122.39 242.62 125.25 249.78 123.82 260.27 118.57 263.13 120 267.9 132.88 277.45 138.13 285.56 140.52 299.39 144.34 303.21 136.7 298.92 134.32 287.47 129.54 279.83 122.87 279.36 121.91 293.19 120 312.28 124.77 316.57 124.3 320.86 119.53 321.82 119.27 324.31 118.09 335.65 113.8 359.99 110.94 376.21 107.12 381.46 102.83 382.89 106.17 387.66 111.89 385.75 115.71 386.7 115.71 390.52 114.75 397.68 131.45 403.88 136.7 404.36 142.43 410.56 151.01 410.08 151.61 404.95 153.76 399.23 157.69 395.29 160.91 388.49 160.91 382.41 159.48 375.97 156.26 372.75 153.76 370.24 154.47 361.3 154.47 355.57 158.77 353.07 160.91 355.93 164.49 355.93 164.95 351.63 165.57 345.91 156.98 343.76 156.05 339.58 159.48 338.04 159.48 333.03 160.56 325.51 167 320.86 166.28 314.42 170.93 309.77 174.16 318 183.82 318 190.97 318.72 195.98 321.22 198.45 321.74 200.63 319.43 207.07 312.63 208.51 307.98 209.22 302.62 210.88 301.59 213.87 299.75 219.96 303.69 226.04 303.69 231.05 303.69 231.09 303.79 233.91 300.82 236.42 290.45 241.07 284.37 247.15 281.5 247.51 270.05 244.29 265.76 247.15 264.33 242.86 258.96 248.22 257.53 248.58 250.01"/>
        <polygon class="region" points="434.89 100.92 426.78 100.44 419.23 100.44 417.71 100.44 411.99 94.72 401.97 96.63 397.2 91.38 392.79 92.93 392.79 96.86 387.78 95.43 379.19 81.12 371.68 77.9 364.16 80.4 362.09 79.25 357.72 76.83 350.56 76.47 346.27 78.61 344.48 71.1 342.39 70.27 337.32 68.24 325.87 62.87 324.8 57.86 323.37 52.49 321.94 47.13 319.07 49.63 315.14 55 309.77 56.79 303.53 55.43 305.12 61.8 304.05 66.09 299.75 72.17 299.04 80.05 298.94 81.22 298.68 84.34 292.6 83.27 287.94 86.13 284.37 86.84 285.08 92.93 286.15 96.86 284.37 104.38 278.64 111.89 278.6 111.86 278.28 119.41 281.44 122.19 275.78 133 282.58 137.3 287.58 145.17 293.31 156.98 302.26 155.19 306.92 155.61 310.13 155.91 318 154.47 319.41 151.78 324.08 154.12 328.74 158.41 329.45 163.06 330.52 167.71 337.32 168.43 340.19 172.01 344.84 172.01 346.99 169.15 355.57 167 357.72 158.77 358.13 156.49 361.66 155.19 370.24 153.04 381.69 154.47 388.85 160.2 392.79 161.63 399.94 164.85 398.87 171.29 401.73 174.16 402.61 176.55 404.36 176.78 411.51 180.59 416.28 173.92 414.85 164.37 416.76 151.97 418.45 147.47 421.06 140.52 425.35 124.3 429.64 116.66 439.66 103.78 434.89 100.92"/>
        <polygon class="region" points="395.29 180.59 396.06 178.67 391.71 176.66 389.54 174.9 391 173.44 392.79 161.63 388.85 160.2 381.69 154.47 370.24 153.04 361.66 155.19 358.13 156.49 357.72 158.77 355.57 167 346.99 169.15 344.84 172.01 340.19 172.01 337.32 168.43 330.52 167.71 329.45 163.06 328.74 158.41 324.08 154.12 319.41 151.78 318 154.47 310.13 155.91 306.92 155.61 302.26 155.19 293.31 156.98 287.58 145.17 282.58 137.3 275.78 133 272.2 133.72 265.04 134.79 262.89 141.95 261.07 142.82 267.19 150.54 267.19 155.19 262.89 159.48 262.18 163.06 257.53 165.21 261.11 170.58 260.19 173.54 259.68 175.23 260.39 180.95 259.32 185.96 262.89 195.27 265.4 203.85 262.54 212.44 262.4 212.48 268.98 218.88 276.49 218.53 280.79 218.53 284.72 214.23 287.94 218.17 287.94 227.11 295.1 227.83 297.96 234.63 292.24 239.64 296.53 243.57 303.69 243.22 309.77 242.35 309.77 237.49 320.51 237.49 323.32 242.13 324.44 237.49 328.38 226.4 335.53 226.4 338.4 227.47 338.75 230.33 345.2 236.77 348.42 238.92 352.35 235.34 355.93 238.56 359.51 237.85 367.62 227.35 368.34 223.99 369.05 220.67 376.69 214.95 379.55 204.93 386.7 199.2 392.43 193.48 399.58 184.41 395.29 180.59"/>
        <polygon class="region" points="185.6 142.66 179.52 138.73 174.15 136.58 174.15 129.78 169.5 128.71 163.78 132.65 159.13 132.29 156.98 128.35 153.04 125.49 143.02 130.5 135.51 131.93 132.43 126.92 125.48 126.92 126.2 136.58 124.06 143.74 125.13 152.33 122.27 155.91 120.46 162.25 120.12 163.42 111.53 161.99 104.02 167.35 92.21 170.22 91.14 170.22 91.14 174.51 85.77 178.45 79.23 179.6 78.5 185.84 84.22 190.14 92.81 187.75 99.49 189.66 101.4 193.95 96.63 194.91 89.47 192.05 86.61 196.82 93.28 202.06 89.95 208.74 101.4 224.01 100.44 228.31 110.46 234.51 120.96 235.46 124.3 237.37 129.78 236.77 134.44 237.13 134.61 237.13 138.73 237.13 142.31 234.27 140.16 228.9 140.16 222.46 135.51 212.44 131.22 203.85 144.46 200.28 154.47 197.77 156.64 199.65 161.27 193.48 162.86 194.54 163.06 189.18 167.35 179.16 168.55 172.72 175.23 172.72 183.46 167 183.94 166.12 187.75 159.13 189.54 146.96 189.64 145.89 189.9 143.02 185.6 142.66"/>
        <polygon class="region" points="126.2 136.58 125.48 126.92 118.69 126.92 113.68 129.43 107.36 121.78 100.44 123.82 97.58 118.57 93.76 120.48 92.95 120.89 88.04 123.34 81.83 120.96 70.38 128.11 55.12 111.42 41.28 112.85 40.33 120.96 38.05 120.24 31.26 118.09 28.88 122.86 19.81 119.53 12.18 121.91 2.64 125.73 0.25 135.27 9.79 134.32 17.43 132.88 18.38 138.61 6.93 138.61 8.36 141.95 16.47 143.86 15.04 148.15 3.11 149.58 5.02 153.88 9.31 152.92 14.56 157.69 16.47 163.42 20.77 161.99 21.72 156.74 29.35 160.56 42.71 161.51 42.95 161.78 47.01 166.28 53.69 165.33 56.07 171.05 63.23 172.01 70.86 172.48 70.38 177.25 79.45 177.73 79.23 179.6 85.77 178.45 91.14 174.51 91.14 170.22 92.21 170.22 104.02 167.35 111.53 161.99 120.12 163.42 120.46 162.25 122.27 155.91 125.13 152.33 124.06 143.74 126.2 136.58"/>
        <polygon class="region" points="221.03 86.49 218.49 81.94 219.6 82.19 219.24 73.61 220.25 64.84 220.31 64.3 218.17 57.5 213.51 55 209.7 48.91 199.68 57.98 188.23 60.37 175.35 65.61 168.19 67.52 165.33 76.59 169.14 78.97 178.69 78.97 170.83 82.71 168.67 83.74 158.17 88.51 143.38 86.13 125.73 83.27 124.3 87.08 115.71 76.59 117.14 67.04 111.89 67.04 109.51 70.86 96.63 67.52 99.49 83.27 107.12 87.56 109.51 111.42 109.98 116.19 115.23 120 108.55 121.43 107.36 121.78 113.68 129.43 118.69 126.92 125.48 126.92 132.43 126.92 135.51 131.93 143.02 130.5 153.04 125.49 156.98 128.35 159.13 132.29 163.78 132.65 169.5 128.71 174.15 129.78 174.15 136.58 179.52 138.73 185.6 142.66 189.9 143.02 187.39 135.51 192.4 134.08 193.48 127.99 191.33 121.55 190.19 119.18 195.27 117.97 203.85 113.32 208.15 113.32 210.65 107.24 210.65 101.52 216.74 100.08 216.95 98.07 217.45 93.28 220.2 91.08 219.24 89.71 221.03 86.49"/>
        <polygon class="region" points="482.13 419.15 482.6 406.98 481.17 402.93 479.02 402.93 477.35 407.46 477.35 417.48 473.3 418.43 466.14 420.82 457.08 425.83 454.21 435.13 454.22 435.17 454.93 445.15 455.41 453.74 460.65 462.09 461.85 469.24 461.13 474.01 467.1 477.35 472.82 483.08 474.01 481.41 474.49 475.45 475.21 471.39 478.55 468.53 479.4 459.08 479.74 455.41 484.03 446.34 484.51 433.22 484.75 423.68 482.13 419.15"/>
        <polygon class="region" points="321.22 345.2 318.36 336.97 317.8 336.88 308.7 335.54 301.9 335.54 298.68 329.09 295.73 328.92 296.17 325.16 292.24 314.06 284.72 311.2 277.92 307.27 273.29 305.86 272.56 308.34 265.4 312.28 264.69 319.07 262.85 319.28 261.46 316.93 257.17 308.7 252.88 305.83 249.66 307.62 247.51 312.28 245.36 319.79 238.21 319.43 234.27 322.65 233.91 313.35 232.48 307.27 231.09 303.79 231.05 303.69 226.04 303.69 219.96 303.69 213.87 299.75 210.88 301.59 209.22 302.62 208.51 307.98 207.07 312.63 200.63 319.43 198.45 321.74 195.98 321.22 190.97 318.72 183.82 318 174.16 318 170.93 309.77 166.28 314.42 167 320.86 160.56 325.51 159.48 333.03 159.48 338.04 156.05 339.58 156.98 343.76 165.57 345.91 164.95 351.63 164.49 355.93 160.91 355.93 158.77 353.07 154.47 355.57 154.47 361.3 153.76 370.24 156.26 372.75 159.48 375.97 160.91 382.41 160.91 388.49 157.69 395.29 153.76 399.23 151.61 404.95 151.01 410.08 160.08 414.85 166.28 415.81 178.69 416.76 185.37 416.28 184.89 407.22 190.14 407.22 191.05 407.74 201.11 413.42 213.99 418.67 222.58 420.1 222.16 423.01 221.63 426.78 230.22 426.78 233.08 431.07 242.62 430.6 250.73 432.98 257.41 429.17 267.91 427.74 263.03 408.24 262.18 404.83 266 396.72 271.93 390.13 274.58 387.18 281.26 380.98 292.71 375.25 303.21 370 311.68 371.57 312.99 367.38 317.29 367.38 318.72 359.51 322.31 356.25 326.23 352.71 321.22 345.2"/>
      </g>
      <g id="data"></g>
    </g>
  </g>
</svg>
