<svg xmlns="http://www.w3.org/2000/svg" viewBox="0 0 32 32">
  <defs>
    <style>
      .cls-1 {
        fill: #09f;
      }

      .cls-2 {
        fill: #fff;
      }
    </style>
  </defs>
  <title>twitter-ball</title>
  <g id="Layer_2" data-name="Layer 2">
    <g id="titres">
      <circle class="cls-1" cx="16" cy="16" r="16"/>
      <path class="cls-2" d="M16,16.41a7.79,7.79,0,1,0,7.79,7.79A7.79,7.79,0,0,0,16,16.41Zm4.48,5.5q0,.15,0,.3a6.57,6.57,0,0,1-10.12,5.54,4.69,4.69,0,0,0,.55,0,4.64,4.64,0,0,0,2.87-1,2.31,2.31,0,0,1-2.16-1.61,2.32,2.32,0,0,0,1,0,2.31,2.31,0,0,1-1.85-2.27v0a2.3,2.3,0,0,0,1,.29,2.31,2.31,0,0,1-.72-3.09,6.56,6.56,0,0,0,4.76,2.41,2.31,2.31,0,0,1,3.94-2.11,4.63,4.63,0,0,0,1.47-.56,2.32,2.32,0,0,1-1,1.28,4.62,4.62,0,0,0,1.33-.36A4.7,4.7,0,0,1,20.48,21.91Z"/>
    </g>
  </g>
</svg>
