<svg id="Layer_1" data-name="Layer 1" xmlns="http://www.w3.org/2000/svg" viewBox="0 0 32 32">
  <defs>
    <style>
      .cls-1 {
        fill: #09f;
      }

      .cls-2 {
        fill: #fff;
      }
    </style>
  </defs>
  <title>Artboard 1@2x</title>
  <circle class="cls-1" cx="16" cy="16" r="16"/>
  <path class="cls-2" d="M16,1.12A14.88,14.88,0,1,0,30.88,16,14.88,14.88,0,0,0,16,1.12Zm8.56,10.51v.57A12.55,12.55,0,0,1,5.23,22.78a9,9,0,0,0,1.05,0,8.86,8.86,0,0,0,5.48-1.91A4.41,4.41,0,0,1,7.63,17.8a4.43,4.43,0,0,0,1.91,0A4.41,4.41,0,0,1,6,13.46H6A4.39,4.39,0,0,0,7.92,14a4.41,4.41,0,0,1-1.38-5.9,12.53,12.53,0,0,0,9.09,4.6,4.41,4.41,0,0,1,7.53-4A8.85,8.85,0,0,0,26,7.61a4.43,4.43,0,0,1-1.91,2.45,8.83,8.83,0,0,0,2.54-.69A9,9,0,0,1,24.56,11.63Z"/>
</svg>
